<svg width="160" height="160" viewBox="0 0 160 160" fill="none" xmlns="http://www.w3.org/2000/svg">
<path d="M43.8252 68H75.8252V160H43.8252V68Z" fill="black"/>
<path d="M103.825 68H135.825V160H103.825V68Z" fill="black"/>
<path d="M0 0H160V120H0V0Z" fill="black"/>
<path fill-rule="evenodd" clip-rule="evenodd" d="M13 160L75.3162 160C73.652 144.262 60.337 132 44.1581 132C27.9791 132 14.6642 144.262 13 160Z" fill="black"/>
<path fill-rule="evenodd" clip-rule="evenodd" d="M73.4922 160L135.808 160C134.144 144.262 120.829 132 104.65 132C88.4713 132 75.1564 144.262 73.4922 160Z" fill="black"/>
<path d="M74 60.5C74 77.3447 60.5685 91 44 91C27.4315 91 14 77.3447 14 60.5C14 43.6553 27.4315 30 44 30C60.5685 30 74 43.6553 74 60.5Z" fill="white"/>
<path d="M146 60.5C146 77.3447 132.569 91 116 91C99.4315 91 86 77.3447 86 60.5C86 43.6553 99.4315 30 116 30C132.569 30 146 43.6553 146 60.5Z" fill="white"/>
<path d="M63 61C63 71.4934 54.4934 80 44 80C33.5066 80 25 71.4934 25 61C25 50.5066 33.5066 42 44 42C54.4934 42 63 50.5066 63 61Z" fill="black"/>
<path d="M135 61C135 71.4934 126.493 80 116 80C105.507 80 97 71.4934 97 61C97 50.5066 105.507 42 116 42C126.493 42 135 50.5066 135 61Z" fill="black"/>
</svg>
