<svg width="470" height="161" viewBox="0 0 470 161" fill="none" xmlns="http://www.w3.org/2000/svg">
<path d="M43.8252 68H75.8252V160H43.8252V68Z" fill="black"/>
<path d="M103.825 68H135.825V160H103.825V68Z" fill="black"/>
<path d="M0 0H160V120H0V0Z" fill="black"/>
<path fill-rule="evenodd" clip-rule="evenodd" d="M13 160L75.3162 160C73.652 144.262 60.337 132 44.1581 132C27.9791 132 14.6642 144.262 13 160Z" fill="black"/>
<path fill-rule="evenodd" clip-rule="evenodd" d="M73.4922 160L135.808 160C134.144 144.262 120.829 132 104.65 132C88.4713 132 75.1564 144.262 73.4922 160Z" fill="black"/>
<path d="M74 60.5C74 77.3447 60.5685 91 44 91C27.4315 91 14 77.3447 14 60.5C14 43.6553 27.4315 30 44 30C60.5685 30 74 43.6553 74 60.5Z" fill="white"/>
<path d="M146 60.5C146 77.3447 132.569 91 116 91C99.4315 91 86 77.3447 86 60.5C86 43.6553 99.4315 30 116 30C132.569 30 146 43.6553 146 60.5Z" fill="white"/>
<path d="M63 61C63 71.4934 54.4934 80 44 80C33.5066 80 25 71.4934 25 61C25 50.5066 33.5066 42 44 42C54.4934 42 63 50.5066 63 61Z" fill="black"/>
<path d="M135 61C135 71.4934 126.493 80 116 80C105.507 80 97 71.4934 97 61C97 50.5066 105.507 42 116 42C126.493 42 135 50.5066 135 61Z" fill="black"/>
<path d="M180 76.1403V7.62939e-06H191.211V76.1403H180ZM230.45 76.1403V7.62939e-06H241.661V76.1403H230.45ZM185.5 31.8309H235.421V41.1369H185.5V31.8309Z" fill="black"/>
<path d="M259.476 76.1403V7.62939e-06H270.687V76.1403H259.476Z" fill="black"/>
<path d="M288.446 76.1403V7.62939e-06H320.704C326.203 7.62939e-06 330.892 0.916512 334.77 2.74952C338.648 4.58252 341.61 7.19103 343.655 10.575C345.77 13.9591 346.828 17.9776 346.828 22.6306C346.828 27.3541 345.77 31.4431 343.655 34.8976C341.61 38.2817 338.613 40.9254 334.665 42.8289C330.787 44.7324 326.133 45.6842 320.704 45.6842H297.013V36.3781H320.175C325.181 36.3781 328.989 35.1796 331.597 32.7826C334.277 30.3856 335.617 27.0369 335.617 22.7363C335.617 18.3653 334.312 15.0166 331.703 12.6901C329.094 10.3635 325.252 9.20029 320.175 9.20029H299.657V76.1403H288.446Z" fill="black"/>
<path d="M180 159.942V83.8022H191.211V159.942H180ZM230.45 159.942V83.8022H241.661V159.942H230.45ZM185.5 115.633H235.421V124.939H185.5V115.633Z" fill="black"/>
<path d="M293.426 161C287.997 161 283.026 160.048 278.514 158.145C274.001 156.171 270.088 153.421 266.774 149.896C263.46 146.371 260.851 142.212 258.947 137.418C257.114 132.624 256.197 127.336 256.197 121.555C256.197 113.941 257.784 107.208 260.957 101.357C264.13 95.5053 268.501 90.958 274.072 87.715C279.712 84.4015 286.129 82.7447 293.321 82.7447C300.654 82.7447 307.105 84.4015 312.676 87.715C318.246 90.958 322.617 95.5053 325.79 101.357C329.034 107.208 330.656 113.976 330.656 121.661C330.656 127.371 329.704 132.659 327.8 137.523C325.967 142.317 323.393 146.477 320.079 150.002C316.765 153.456 312.817 156.171 308.233 158.145C303.721 160.048 298.785 161 293.426 161ZM293.321 151.482C298.397 151.482 302.875 150.213 306.753 147.675C310.631 145.067 313.663 141.507 315.848 136.995C318.105 132.483 319.233 127.301 319.233 121.449C319.233 115.668 318.14 110.592 315.954 106.221C313.768 101.78 310.737 98.3605 306.859 95.9635C302.981 93.496 298.468 92.2622 293.321 92.2622C288.173 92.2622 283.661 93.496 279.783 95.9635C275.975 98.3605 272.979 101.745 270.793 106.116C268.678 110.487 267.62 115.598 267.62 121.449C267.62 127.371 268.713 132.588 270.899 137.1C273.084 141.612 276.081 145.137 279.889 147.675C283.767 150.213 288.244 151.482 293.321 151.482Z" fill="black"/>
<path d="M345.149 159.942V83.8022H377.407C382.907 83.8022 387.596 84.7187 391.474 86.5517C395.352 88.3847 398.314 90.9932 400.358 94.3773C402.474 97.7613 403.531 101.78 403.531 106.433C403.531 111.156 402.474 115.245 400.358 118.7C398.314 122.084 395.317 124.728 391.368 126.631C387.49 128.535 382.837 129.486 377.407 129.486H353.716V120.18H376.879C381.885 120.18 385.692 118.982 388.301 116.585C390.981 114.188 392.32 110.839 392.32 106.539C392.32 102.168 391.016 98.8188 388.407 96.4922C385.798 94.1657 381.955 93.0025 376.879 93.0025H356.36V159.942H345.149Z" fill="black"/>
<path d="M443.347 160.894C434.181 160.894 426.848 158.709 421.348 154.338C415.849 149.967 412.64 143.727 411.724 135.62H422.618C423.252 140.907 425.367 144.926 428.963 147.675C432.559 150.425 437.425 151.8 443.559 151.8C448.706 151.8 452.584 150.848 455.193 148.944C457.872 147.041 459.212 144.327 459.212 140.802C459.212 137.629 458.331 135.126 456.568 133.293C454.805 131.39 452.02 129.839 448.213 128.64L434.992 124.41C428.223 122.225 423.252 119.475 420.079 116.162C416.906 112.848 415.32 108.654 415.32 103.578C415.32 99.277 416.377 95.5758 418.493 92.4737C420.679 89.3717 423.71 86.9747 427.589 85.2827C431.537 83.5202 436.12 82.639 441.338 82.639C449.376 82.639 455.792 84.6835 460.587 88.7725C465.452 92.791 468.237 98.3958 468.942 105.587H458.049C457.203 100.793 455.369 97.303 452.549 95.1175C449.729 92.8615 445.85 91.7335 440.915 91.7335C436.261 91.7335 432.63 92.65 430.021 94.483C427.412 96.316 426.108 98.8893 426.108 102.203C426.108 104.882 426.954 107.138 428.646 108.971C430.409 110.733 433.3 112.249 437.319 113.518L451.174 117.96C457.59 120.004 462.314 122.789 465.346 126.314C468.449 129.839 470 134.28 470 139.638C470 146.406 467.673 151.659 463.02 155.395C458.366 159.061 451.809 160.894 443.347 160.894Z" fill="black"/>
</svg>
