<svg id="Layer_1" data-name="Layer 1" xmlns="http://www.w3.org/2000/svg" viewBox="0 0 841.89 841.89"><defs><style>.cls-1{fill:#7c40c8;}</style></defs><title>inverted-logo</title><path class="cls-1" d="M622,59.64H212.41A160.69,160.69,0,0,0,51.72,220.33V630A160.69,160.69,0,0,0,212.41,790.65H622A160.69,160.69,0,0,0,782.73,630V220.33A160.69,160.69,0,0,0,622,59.64ZM342.23,546.85a30.09,30.09,0,0,1-30,30h0a30.09,30.09,0,0,1-30-30V304.44a30.09,30.09,0,0,1,30-30h0a30.09,30.09,0,0,1,30,30Zm105-91.21a30.09,30.09,0,0,1-30,30h0a30.09,30.09,0,0,1-30-30v-60a30.09,30.09,0,0,1,30-30h0a30.09,30.09,0,0,1,30,30Zm105,91.21a30.09,30.09,0,0,1-30,30h0a30.09,30.09,0,0,1-30-30V303.44a30.09,30.09,0,0,1,30-30h0a30.09,30.09,0,0,1,30,30Z"/></svg>