<?xml version="1.0" encoding="utf-8"?>
<!-- Generator: Adobe Illustrator 23.1.1, SVG Export Plug-In . SVG Version: 6.00 Build 0)  -->
<svg version="1.1" id="Layer_1" xmlns="http://www.w3.org/2000/svg" xmlns:xlink="http://www.w3.org/1999/xlink" x="0px" y="0px"
	 viewBox="0 0 1887.7 1247.9" style="enable-background:new 0 0 1887.7 1247.9;" xml:space="preserve">
<style type="text/css">
	.st0{fill:#FFFFFF;}
	.st1{fill:#333333;}
	.st2{fill:#7C40C8;}
</style>
<rect class="st0" width="1887.7" height="1247.9"/>
<title>logo-with-text</title>
<path class="st1" d="M586.1,494.1v95.1H673v-95.1h43.4v230.3H673v-95.7h-86.9v95.7h-43.4V494.1H586.1z"/>
<path class="st1" d="M753.7,493.4c5.6-5.3,12.5-7.9,20.9-7.9c8.3,0,15.3,2.6,20.9,7.9c5.6,5.3,8.4,12.1,8.4,20.4
	c0,8.3-2.8,15.1-8.4,20.4c-5.6,5.3-12.6,7.9-20.9,7.9c-8.3,0-15.3-2.6-20.9-7.9c-5.6-5.3-8.4-12.1-8.4-20.4
	C745.3,505.5,748.1,498.7,753.7,493.4z M795.3,724.4h-41.5V561.2h41.5L795.3,724.4z"/>
<path class="st1" d="M873,561.2v22h3.3c12.5-17.8,30.5-26.7,54-26.7c12.9-0.1,25.6,3.6,36.5,10.5c11.2,7,20.2,17.1,27,30.3
	c6.8,13.2,10.2,28.3,10.2,45.4c0,17.1-3.4,32.2-10.2,45.4c-6.8,13.2-15.8,23.2-27,30.3c-10.9,7-23.6,10.6-36.6,10.6
	c-23.5,0-41.2-8.6-53.3-25.7h-3.3v86.9h-41.5v-229L873,561.2z M950,680c8.3-9,12.5-21.4,12.5-37.2c0-15.8-4.2-28.2-12.5-37.2
	c-8.3-9-19.1-13.5-32.2-13.5s-23.9,4.5-32.2,13.5c-8.3,9-12.5,21.4-12.5,37.2c0,15.8,4.2,28.2,12.5,37.2c8.3,9,19.1,13.5,32.2,13.5
	C930.9,693.5,941.6,689,950,680z"/>
<path class="st1" d="M1072.4,584.3h3.3c8.5-17.1,25.1-25.7,49.7-25.7c12.5,0,23.6,2.9,33.2,8.7c9.6,5.8,17.4,14.2,22.4,24.2
	c5.3,10.3,7.9,22.2,7.9,35.5v97.4h-41.4V629c0-12.3-3-21.5-8.9-27.6c-5.9-6.1-14.6-9.2-26-9.2c-12.7,0-22.6,4.2-29.6,12.7
	c-7,8.4-10.5,20.2-10.5,35.4v84.2h-41.5V494.1h41.5V584.3z"/>
<path class="st1" d="M1225,597.2c7.1-12.7,17.8-23.2,30.6-30.1c12.9-7,27.5-10.5,43.8-10.5c16.2,0,30.8,3.5,43.8,10.5
	c12.8,6.9,23.5,17.4,30.6,30.1c7.5,13,11.2,28.2,11.2,45.6c0,17.3-3.7,32.5-11.2,45.6c-7.1,12.7-17.7,23.2-30.6,30.1
	c-12.9,7-27.5,10.5-43.7,10.5c-16.2,0-30.8-3.5-43.8-10.5c-12.9-6.9-23.5-17.4-30.6-30.1c-7.4-13-11.2-28.2-11.2-45.6
	C1213.8,625.5,1217.5,610.3,1225,597.2z M1267.4,679.5c8.1,8.9,18.7,13.3,31.9,13.3c13.2,0,23.8-4.4,31.9-13.3
	c8.1-8.9,12.2-21.1,12.2-36.7c0-15.6-4.1-27.8-12.2-36.7c-8.1-8.9-18.8-13.3-31.9-13.3s-23.8,4.4-31.9,13.3
	c-8.1,8.9-12.2,21.1-12.2,36.7S1259.3,670.6,1267.4,679.5L1267.4,679.5z"/>
<path class="st1" d="M1452.7,561.2v22h3.3c12.5-17.8,30.5-26.7,54-26.7c12.9-0.1,25.6,3.6,36.5,10.5c11.2,7,20.2,17.1,27,30.3
	c6.8,13.2,10.2,28.3,10.2,45.4c0,17.1-3.4,32.2-10.2,45.4c-6.8,13.2-15.8,23.2-27,30.3c-10.9,7-23.6,10.6-36.6,10.6
	c-23.5,0-41.2-8.6-53.3-25.7h-3.3v86.9h-41.5v-229L1452.7,561.2z M1529.7,680c8.3-9,12.5-21.4,12.5-37.2c0-15.8-4.2-28.2-12.5-37.2
	c-8.3-9-19.1-13.5-32.2-13.5c-13.2,0-23.9,4.5-32.2,13.5c-8.3,9-12.5,21.4-12.5,37.2c0,15.8,4.2,28.2,12.5,37.2
	c8.3,9,19.1,13.5,32.2,13.5C1510.6,693.5,1521.3,689,1529.7,680L1529.7,680z"/>
<path class="st1" d="M1625.4,569.9c11.6-8.9,27.3-13.3,47-13.3c17.8,0,32.6,4,44.4,12c11.6,7.6,20.1,19.1,24,32.4l-37.5,11.5
	c-3.5-16.2-13.8-24.3-30.9-24.4c-7.9,0-13.9,1.4-18.1,4.3c-4,2.6-6.4,7.1-6.2,11.8c-0.2,4.9,2.3,9.5,6.4,12c4.3,2.8,10.9,5,19.9,6.8
	l8.6,1.6c14.3,2.9,25.9,6,34.9,9.5c9,3.5,16.2,8.5,21.6,15.1c5.4,6.6,8.1,15.2,8.1,26c0,16.9-6.1,30-18.4,39.5S1700,729,1679,729
	c-21.5,0-39-4.6-52.5-13.8s-21.7-22.4-24.5-39.5l38.2-9.9c3.7,21,16.7,31.6,38.8,31.6c9.2,0,16.2-1.8,21-5.3c4.8-3.5,7.2-8,7.2-13.5
	c0-5-2.3-9-6.9-12c-4.6-3-12.2-5.4-22.7-7.4l-8.6-1.6c-19.5-3.7-34.6-9.4-45.2-16.9s-16-18.8-16-33.7
	C1607.9,591.2,1613.8,578.8,1625.4,569.9z"/>
<path class="st2" d="M198.3,757.2L198.3,757.2c-16.6,0-30-13.4-30-30V484.7c0-16.6,13.4-30,30-30l0,0c16.6,0,30,13.4,30,30v242.4
	C228.3,743.7,214.9,757.2,198.3,757.2z"/>
<path class="st2" d="M408.3,757.2L408.3,757.2c-16.6,0-30-13.4-30-30V483.8c0-16.6,13.4-30,30-30l0,0c16.6,0,30,13.4,30,30v243.4
	C438.3,743.7,424.9,757.2,408.3,757.2z"/>
<path class="st2" d="M303.3,666L303.3,666c-16.6,0-30-13.4-30-30v-60c0-16.6,13.4-30,30-30l0,0c16.6,0,30,13.4,30,30v60
	C333.3,652.5,319.9,666,303.3,666z"/>
<rect x="1956.3" y="-1002.8" class="st0" width="1887.7" height="841.9"/>
<path class="st1" d="M2542.4-711.7v95.1h86.9v-95.1h43.4v230.3h-43.4v-95.7h-86.9v95.7H2499v-230.3H2542.4z"/>
<path class="st1" d="M2710-712.4c5.6-5.3,12.6-7.9,20.9-7.9c8.3,0,15.3,2.6,20.9,7.9c5.6,5.3,8.4,12.1,8.4,20.4
	c0,8.3-2.8,15.1-8.4,20.4c-5.6,5.3-12.6,7.9-20.9,7.9c-8.3,0-15.3-2.6-20.9-7.9c-5.6-5.3-8.4-12.1-8.4-20.4S2704.4-707.1,2710-712.4
	z M2751.7-481.4h-41.5v-163.2h41.5V-481.4z"/>
<path class="st1" d="M2829.3-644.6v22h3.3c12.5-17.8,30.5-26.7,54-26.6c12.9-0.1,25.6,3.6,36.5,10.5c11.2,7,20.2,17.1,27,30.3
	c6.8,13.2,10.2,28.3,10.2,45.4c0,17.1-3.4,32.2-10.2,45.4s-15.8,23.2-27,30.3c-10.9,7-23.6,10.6-36.6,10.6
	c-23.5,0-41.2-8.6-53.3-25.7h-3.3v86.9h-41.5v-229L2829.3-644.6z M2906.3-525.8c8.3-9,12.5-21.4,12.5-37.2s-4.2-28.2-12.5-37.2
	c-8.3-9-19.1-13.5-32.2-13.5c-13.2,0-23.9,4.5-32.2,13.5c-8.3,9-12.5,21.4-12.5,37.2s4.2,28.2,12.5,37.2c8.3,9,19.1,13.5,32.2,13.5
	C2887.2-512.3,2898-516.8,2906.3-525.8z"/>
<path class="st1" d="M3028.7-621.6h3.3c8.5-17.1,25.1-25.7,49.7-25.7c12.5,0,23.6,2.9,33.2,8.7c9.6,5.8,17.4,14.2,22.4,24.2
	c5.3,10.3,7.9,22.2,7.9,35.5v97.4h-41.4v-95.4c0-12.3-3-21.5-8.9-27.6c-5.9-6.1-14.6-9.2-26-9.2c-12.7,0-22.6,4.2-29.6,12.7
	c-7,8.4-10.5,20.2-10.5,35.4v84.2h-41.4v-230.3h41.5V-621.6z"/>
<path class="st1" d="M3181.3-608.6c7.1-12.7,17.8-23.2,30.6-30.1c12.9-7,27.5-10.5,43.8-10.5c16.2,0,30.8,3.5,43.8,10.5
	c12.8,6.9,23.5,17.4,30.6,30.1c7.5,13,11.2,28.2,11.2,45.6s-3.7,32.5-11.2,45.6c-7.1,12.7-17.7,23.2-30.6,30.1
	c-12.9,7-27.5,10.5-43.7,10.5s-30.8-3.5-43.8-10.5c-12.9-6.9-23.5-17.4-30.6-30.1c-7.4-13-11.2-28.2-11.2-45.6
	C3170.1-580.3,3173.9-595.5,3181.3-608.6z M3223.8-526.3c8.1,8.9,18.7,13.3,31.9,13.3s23.8-4.4,31.9-13.3
	c8.1-8.9,12.2-21.1,12.2-36.7s-4.1-27.8-12.2-36.7c-8.1-8.9-18.8-13.3-31.9-13.3s-23.8,4.4-31.9,13.3c-8.1,8.9-12.2,21.1-12.2,36.7
	C3211.6-547.4,3215.6-535.2,3223.8-526.3L3223.8-526.3z"/>
<path class="st1" d="M3409-644.6v22h3.3c12.5-17.8,30.5-26.7,54-26.6c12.9-0.1,25.6,3.6,36.5,10.5c11.2,7,20.2,17.1,27,30.3
	c6.8,13.2,10.2,28.3,10.2,45.4c0,17.1-3.4,32.2-10.2,45.4c-6.8,13.2-15.8,23.2-27,30.3c-10.9,7-23.6,10.6-36.6,10.6
	c-23.5,0-41.2-8.6-53.3-25.7h-3.3v86.9h-41.5v-229L3409-644.6z M3486-525.8c8.3-9,12.5-21.4,12.5-37.2c0-15.8-4.2-28.2-12.5-37.2
	c-8.3-9-19.1-13.5-32.2-13.5c-13.2,0-23.9,4.5-32.2,13.5c-8.3,9-12.5,21.4-12.5,37.2s4.2,28.2,12.5,37.2c8.3,9,19.1,13.5,32.2,13.5
	C3466.9-512.4,3477.7-516.8,3486-525.8L3486-525.8z"/>
<path class="st1" d="M3581.7-635.9c11.6-8.9,27.3-13.3,47-13.3c17.8,0,32.6,4,44.4,12c11.6,7.6,20.1,19.1,24,32.4l-37.5,11.5
	c-3.5-16.2-13.8-24.3-30.9-24.3c-7.9,0-13.9,1.4-18.1,4.3c-4,2.6-6.4,7.1-6.2,11.8c-0.2,4.9,2.3,9.5,6.4,12c4.3,2.8,10.9,5,19.9,6.8
	l8.6,1.6c14.3,2.9,25.9,6,34.9,9.5c9,3.5,16.2,8.5,21.6,15.1c5.4,6.6,8.1,15.2,8.1,26c0,16.9-6.1,30-18.4,39.5
	c-12.3,9.4-28.9,14.2-50,14.2c-21.5,0-39-4.6-52.5-13.8c-13.5-9.2-21.7-22.4-24.5-39.5l38.2-9.9c3.7,21,16.7,31.6,38.8,31.6
	c9.2,0,16.2-1.8,21-5.3c4.8-3.5,7.2-8,7.2-13.5c0-5-2.3-9-6.9-12s-12.2-5.4-22.7-7.4l-8.6-1.7c-19.5-3.7-34.6-9.4-45.2-16.9
	c-10.6-7.6-16-18.8-16-33.7C3564.3-614.7,3570.1-627,3581.7-635.9z"/>
<path class="st2" d="M2154.6-448.7L2154.6-448.7c-16.6,0-30-13.4-30-30v-242.4c0-16.6,13.4-30,30-30l0,0c16.6,0,30,13.4,30,30v242.4
	C2184.6-462.1,2171.2-448.7,2154.6-448.7z"/>
<path class="st2" d="M2364.6-448.7L2364.6-448.7c-16.6,0-30-13.4-30-30v-243.4c0-16.6,13.4-30,30-30l0,0c16.6,0,30,13.4,30,30v243.4
	C2394.6-462.1,2381.2-448.7,2364.6-448.7z"/>
<path class="st2" d="M2259.6-539.9L2259.6-539.9c-16.6,0-30-13.4-30-30v-60c0-16.6,13.4-30,30-30l0,0c16.6,0,30,13.4,30,30v60
	C2289.6-553.3,2276.2-539.9,2259.6-539.9z"/>
<path class="st1" d="M586.1-711.7v95.1H673v-95.1h43.4v230.3H673v-95.7h-86.9v95.7h-43.4v-230.3H586.1z"/>
<path class="st1" d="M753.7-712.4c5.6-5.3,12.5-7.9,20.9-7.9c8.3,0,15.3,2.6,20.9,7.9c5.6,5.3,8.4,12.1,8.4,20.4
	c0,8.3-2.8,15.1-8.4,20.4c-5.6,5.3-12.6,7.9-20.9,7.9c-8.3,0-15.3-2.6-20.9-7.9c-5.6-5.3-8.4-12.1-8.4-20.4
	C745.3-700.3,748.1-707.1,753.7-712.4z M795.3-481.4h-41.5v-163.2h41.5L795.3-481.4z"/>
<path class="st1" d="M873-644.6v22h3.3c12.5-17.8,30.5-26.7,54-26.6c12.9-0.1,25.6,3.6,36.5,10.5c11.2,7,20.2,17.1,27,30.3
	c6.8,13.2,10.2,28.3,10.2,45.4c0,17.1-3.4,32.2-10.2,45.4c-6.8,13.2-15.8,23.2-27,30.3c-10.9,7-23.6,10.6-36.6,10.6
	c-23.5,0-41.2-8.6-53.3-25.7h-3.3v86.9h-41.5v-229L873-644.6z M950-525.8c8.3-9,12.5-21.4,12.5-37.2s-4.2-28.2-12.5-37.2
	c-8.3-9-19.1-13.5-32.2-13.5s-23.9,4.5-32.2,13.5c-8.3,9-12.5,21.4-12.5,37.2s4.2,28.2,12.5,37.2c8.3,9,19.1,13.5,32.2,13.5
	C930.9-512.3,941.6-516.8,950-525.8z"/>
<path class="st1" d="M1072.4-621.6h3.3c8.5-17.1,25.1-25.7,49.7-25.7c12.5,0,23.6,2.9,33.2,8.7c9.6,5.8,17.4,14.2,22.4,24.2
	c5.3,10.3,7.9,22.2,7.9,35.5v97.4h-41.4v-95.4c0-12.3-3-21.5-8.9-27.6c-5.9-6.1-14.6-9.2-26-9.2c-12.7,0-22.6,4.2-29.6,12.7
	c-7,8.4-10.5,20.2-10.5,35.4v84.2h-41.5v-230.3h41.5V-621.6z"/>
<path class="st1" d="M1225-608.6c7.1-12.7,17.8-23.2,30.6-30.1c12.9-7,27.5-10.5,43.8-10.5c16.2,0,30.8,3.5,43.8,10.5
	c12.8,6.9,23.5,17.4,30.6,30.1c7.5,13,11.2,28.2,11.2,45.6s-3.7,32.5-11.2,45.6c-7.1,12.7-17.7,23.2-30.6,30.1
	c-12.9,7-27.5,10.5-43.7,10.5c-16.2,0-30.8-3.5-43.8-10.5c-12.9-6.9-23.5-17.4-30.6-30.1c-7.4-13-11.2-28.2-11.2-45.6
	C1213.8-580.3,1217.5-595.5,1225-608.6z M1267.4-526.3c8.1,8.9,18.7,13.3,31.9,13.3c13.2,0,23.8-4.4,31.9-13.3
	c8.1-8.9,12.2-21.1,12.2-36.7s-4.1-27.8-12.2-36.7c-8.1-8.9-18.8-13.3-31.9-13.3s-23.8,4.4-31.9,13.3c-8.1,8.9-12.2,21.1-12.2,36.7
	C1255.3-547.4,1259.3-535.2,1267.4-526.3L1267.4-526.3z"/>
<path class="st1" d="M1452.7-644.6v22h3.3c12.5-17.8,30.5-26.7,54-26.6c12.9-0.1,25.6,3.6,36.5,10.5c11.2,7,20.2,17.1,27,30.3
	c6.8,13.2,10.2,28.3,10.2,45.4c0,17.1-3.4,32.2-10.2,45.4s-15.8,23.2-27,30.3c-10.9,7-23.6,10.6-36.6,10.6
	c-23.5,0-41.2-8.6-53.3-25.7h-3.3v86.9h-41.5v-229L1452.7-644.6z M1529.7-525.8c8.3-9,12.5-21.4,12.5-37.2
	c0-15.8-4.2-28.2-12.5-37.2c-8.3-9-19.1-13.5-32.2-13.5c-13.2,0-23.9,4.5-32.2,13.5c-8.3,9-12.5,21.4-12.5,37.2
	c0,15.8,4.2,28.2,12.5,37.2c8.3,9,19.1,13.5,32.2,13.5C1510.6-512.4,1521.3-516.8,1529.7-525.8L1529.7-525.8z"/>
<path class="st1" d="M1625.4-635.9c11.6-8.9,27.3-13.3,47-13.3c17.8,0,32.6,4,44.4,12c11.6,7.6,20.1,19.1,24,32.4l-37.5,11.5
	c-3.5-16.2-13.8-24.3-30.9-24.3c-7.9,0-13.9,1.4-18.1,4.3c-4,2.6-6.4,7.1-6.2,11.8c-0.2,4.9,2.3,9.5,6.4,12c4.3,2.8,10.9,5,19.9,6.8
	l8.6,1.6c14.3,2.9,25.9,6,34.9,9.5c9,3.5,16.2,8.5,21.6,15.1c5.4,6.6,8.1,15.2,8.1,26c0,16.9-6.1,30-18.4,39.5
	c-12.3,9.4-28.9,14.2-50,14.2c-21.5,0-39-4.6-52.5-13.8c-13.5-9.2-21.7-22.4-24.5-39.5l38.2-9.9c3.7,21,16.7,31.6,38.8,31.6
	c9.2,0,16.2-1.8,21-5.3s7.2-8,7.2-13.5c0-5-2.3-9-6.9-12s-12.2-5.4-22.7-7.4l-8.6-1.7c-19.5-3.7-34.6-9.4-45.2-16.9
	c-10.6-7.6-16-18.8-16-33.7C1607.9-614.7,1613.8-627,1625.4-635.9z"/>
<path class="st2" d="M198.3-448.7L198.3-448.7c-16.6,0-30-13.4-30-30v-242.4c0-16.6,13.4-30,30-30l0,0c16.6,0,30,13.4,30,30v242.4
	C228.3-462.1,214.9-448.7,198.3-448.7z"/>
<path class="st2" d="M408.3-448.7L408.3-448.7c-16.6,0-30-13.4-30-30v-243.4c0-16.6,13.4-30,30-30l0,0c16.6,0,30,13.4,30,30v243.4
	C438.3-462.1,424.9-448.7,408.3-448.7z"/>
<path class="st2" d="M303.3-539.9L303.3-539.9c-16.6,0-30-13.4-30-30v-60c0-16.6,13.4-30,30-30l0,0c16.6,0,30,13.4,30,30v60
	C333.3-553.3,319.9-539.9,303.3-539.9z"/>
</svg>
